<?xml version="1.0" standalone="no"?><!DOCTYPE svg PUBLIC "-//W3C//DTD SVG 1.1//EN" "http://www.w3.org/Graphics/SVG/1.1/DTD/svg11.dtd"><svg t="1781337664442" class="icon" viewBox="0 0 1024 1024" version="1.1" xmlns="http://www.w3.org/2000/svg" p-id="1880" xmlns:xlink="http://www.w3.org/1999/xlink" width="200" height="200"><path d="M501.77536 564.73984c-70.64448-70.64576-151.2-134.84288-211.97952-179.8848l-1.02528 1.46944c-0.01152 4.67712-2.21056 9.09184-5.6576 12.24064-0.95744 1.32224-2.05568 2.54208-3.44448 3.50208-1.23776 1.32224-2.7072 2.45632-4.4736 3.25888-0.76288 1.89056-1.95968 3.54944-3.39072 5.0112-1.32864 2.7392-3.40352 5.06112-6.22592 6.592 62.0672 48.5888 136.23424 110.80832 204.60544 179.1808 50.9312 50.9312 98.5792 105.15456 139.81312 155.27424l37.13408-22.11712C607.3856 678.81216 553.8048 616.76928 501.77536 564.73984z" fill="#8a8a8a" p-id="1881"></path><path d="M384.77056 289.82912c43.92064 58.42304 113.78176 145.76 179.1104 211.08992 54.1952 54.1952 113.02784 103.88736 165.12896 144.67712l23.80928-34.5024c-52.93312-43.1616-103.29472-87.49312-157.66272-141.8624-62.73792-62.73792-120.29056-130.3872-166.79168-188.992L384.77056 289.82912z" fill="#8a8a8a" p-id="1882"></path><path d="M754.52032 943.35616c0.02304 0.03328 0.11136 0.1664 0.11136 0.1664l0.98176-0.98176L754.52032 943.35616z" fill="#8a8a8a" p-id="1883"></path><path d="M311.65184 0C227.0272 0 144.20608 96.85248 178.0864 178.0864 78.96192 159.83744 0 227.0272 0 311.65184c0 98.3552 57.47072 178.0864 178.0864 178.0864 59.83744 0 112.58624-29.62816 144.82816-74.91072-5.15072-0.31744-10.05184-3.02208-12.94976-7.65824-0.74624-0.128-1.49888-0.18688-2.24128-0.35072-5.62048-1.23648-9.66016-5.81504-11.24864-11.12192-4.16256-1.6-5.20576-7.02464-6.68032-10.8416-24.064 35.00416-66.01856 60.36224-111.70944 60.36224-96.6528 0-133.56544-59.79904-133.56544-133.56544 0-73.76512 78.08256-117.7024 178.0864-89.0432-14.44096-95.77728 15.27808-178.0864 89.0432-178.0864 73.7664 0 133.56544 45.67424 133.56544 133.56544 0 46.72768-24.11904 87.67232-60.4672 111.53024 1.43488 0.91904 2.5856 2.10048 3.59808 3.38688 0.55168-0.0576 1.08928-0.17152 1.65504-0.17152l0.43648 0c7.0208 0 13.07136 4.61952 15.3792 10.92096 5.6448 4.12544 10.7776 9.02272 15.53536 14.40256 41.60512-32.55168 68.384-83.13344 68.384-140.06912C489.73952 41.4336 410.00704 0 311.65184 0z" fill="#8a8a8a" p-id="1884"></path><path d="M845.9136 534.26048c-64.66816 0-119.8976 32.47488-151.0528 84.0576l34.47552 28.8576c22.85952-40.8 66.48576-68.39296 116.57856-68.39296 96.6528 0 133.56544 59.79904 133.56544 133.56544 0 73.7664-78.08256 117.69984-178.0864 89.0432 14.44096 95.77472-15.27808 178.0864-89.0432 178.0864-73.76512 0-133.56544-45.67552-133.56544-133.56544 0-49.93792 27.49952-93.32608 68.09472-116.2368-0.19456-0.50176-0.35456-1.0112-0.50304-1.53088-1.06368-0.77184-2.03904-1.62816-2.83392-2.6368-0.16512-0.16384-0.34944-0.30976-0.50944-0.47872-1.06368-0.8128-1.94048-1.792-2.72768-2.83648-3.22432-1.43744-5.65632-3.78496-7.13472-6.70848-6.08384-1.90848-9.6-7.05408-10.45888-12.74368-2.0608-2.22976-3.97696-4.5504-5.48736-7.07072-49.80096 31.5328-82.96192 86.9248-82.96192 150.24256 0 136.6528 79.7312 178.0864 178.0864 178.0864 84.62464 0 167.44576-96.85248 133.56544-178.0864C945.03808 864.16256 1024 796.9728 1024 712.34816 1024 613.99296 966.52928 534.26048 845.9136 534.26048z" fill="#8a8a8a" p-id="1885"></path></svg>