<svg width="48" height="48" viewBox="0 0 48 48" fill="none" xmlns="http://www.w3.org/2000/svg">
<rect width="48" height="48" rx="24" fill="#5E8C83" fill-opacity="0.1"/>
<path d="M15 27.5127C14.45 27.5127 13.9792 27.3169 13.5875 26.9252C13.1958 26.5335 13 26.0627 13 25.5127V16.5127C13 15.9627 13.1958 15.4919 13.5875 15.1002C13.9792 14.7085 14.45 14.5127 15 14.5127H33C33.55 14.5127 34.0208 14.7085 34.4125 15.1002C34.8042 15.4919 35 15.9627 35 16.5127V25.5127C35 26.0627 34.8042 26.5335 34.4125 26.9252C34.0208 27.3169 33.55 27.5127 33 27.5127H15V27.5127M15 16.5127V16.5127V16.5127V25.5127V25.5127V25.5127H33V25.5127V25.5127V16.5127V16.5127V16.5127H15V16.5127M15.075 31.0127L15 29.5127L32.975 28.5627L33.05 30.0627L15.075 31.0127V31.0127M15 33.4877V31.9877H33V33.4877H15V33.4877M22.25 24.0127C23.4833 24.0127 24.6708 23.796 25.8125 23.3627C26.9542 22.9294 27.95 22.2627 28.8 21.3627C28.9 22.0627 29.2667 22.596 29.9 22.9627C30.5333 23.3294 31.2333 23.5127 32 23.5127V18.5127C31.2333 18.5127 30.5333 18.7002 29.9 19.0752C29.2667 19.4502 28.9 19.996 28.8 20.7127C27.9167 19.846 26.9125 19.1794 25.7875 18.7127C24.6625 18.246 23.4833 18.0127 22.25 18.0127C20.9333 18.0127 19.6667 18.2419 18.45 18.7002C17.2333 19.1585 16.25 19.9294 15.5 21.0127C16.25 22.096 17.2333 22.8669 18.45 23.3252C19.6667 23.7835 20.9333 24.0127 22.25 24.0127V24.0127M15 16.5127V16.5127V16.5127V16.5127V25.5127V25.5127V25.5127V25.5127V25.5127V25.5127V16.5127V16.5127V16.5127V16.5127" fill="#5E8C83"/>
</svg>
