<svg width="10" height="15" viewBox="0 0 10 15" fill="none" xmlns="http://www.w3.org/2000/svg">
<path d="M3.75 14.1667V12.5H2.08333V10.8333H3.75V9.08333C2.65278 8.88889 1.75347 8.36458 1.05208 7.51042C0.350694 6.65625 0 5.66667 0 4.54167C0 3.27778 0.447917 2.20486 1.34375 1.32292C2.23958 0.440972 3.31944 0 4.58333 0C5.84722 0 6.92708 0.440972 7.82292 1.32292C8.71875 2.20486 9.16667 3.27778 9.16667 4.54167C9.16667 5.66667 8.81597 6.65625 8.11458 7.51042C7.41319 8.36458 6.51389 8.88889 5.41667 9.08333V10.8333H7.08333V12.5H5.41667V14.1667H3.75V14.1667M4.58333 7.5C5.38889 7.5 6.07639 7.21528 6.64583 6.64583C7.21528 6.07639 7.5 5.38889 7.5 4.58333C7.5 3.77778 7.21528 3.09028 6.64583 2.52083C6.07639 1.95139 5.38889 1.66667 4.58333 1.66667C3.77778 1.66667 3.09028 1.95139 2.52083 2.52083C1.95139 3.09028 1.66667 3.77778 1.66667 4.58333C1.66667 5.38889 1.95139 6.07639 2.52083 6.64583C3.09028 7.21528 3.77778 7.5 4.58333 7.5V7.5" fill="#3E4946"/>
</svg>
