<svg width="18" height="14" viewBox="0 0 18 14" fill="none" xmlns="http://www.w3.org/2000/svg">
<path d="M13.3333 0V5H11.6667V2.85417L8.35417 6.14583C8.61806 6.53472 8.81944 6.94792 8.95833 7.38542C9.09722 7.82292 9.16667 8.27778 9.16667 8.75C9.16667 10.0278 8.72222 11.1111 7.83333 12C6.94444 12.8889 5.86111 13.3333 4.58333 13.3333C3.30556 13.3333 2.22222 12.8889 1.33333 12C0.444444 11.1111 0 10.0278 0 8.75C0 7.47222 0.444444 6.38889 1.33333 5.5C2.22222 4.61111 3.30556 4.16667 4.58333 4.16667C5.04167 4.16667 5.49306 4.23264 5.9375 4.36458C6.38194 4.49653 6.79167 4.70139 7.16667 4.97917L10.4792 1.66667H8.33333V0H13.3333V0M4.58333 5.83333C3.77778 5.83333 3.09028 6.11806 2.52083 6.6875C1.95139 7.25694 1.66667 7.94444 1.66667 8.75C1.66667 9.55556 1.95139 10.2431 2.52083 10.8125C3.09028 11.3819 3.77778 11.6667 4.58333 11.6667C5.38889 11.6667 6.07639 11.3819 6.64583 10.8125C7.21528 10.2431 7.5 9.55556 7.5 8.75C7.5 7.94444 7.21528 7.25694 6.64583 6.6875C6.07639 6.11806 5.38889 5.83333 4.58333 5.83333V5.83333" fill="#006B5D"/>
</svg>
