<?xml version="1.0" standalone="no"?><!DOCTYPE svg PUBLIC "-//W3C//DTD SVG 1.1//EN" "http://www.w3.org/Graphics/SVG/1.1/DTD/svg11.dtd"><svg t="1781624023859" class="icon" viewBox="0 0 1024 1024" version="1.1" xmlns="http://www.w3.org/2000/svg" p-id="2637" xmlns:xlink="http://www.w3.org/1999/xlink" width="200" height="200"><path d="M513.3 419.8c-88.2 0-160.4 72.2-160.4 160.4s72.2 160.4 160.4 160.4 160.4-72.2 160.4-160.4c0.1-88.3-72.1-160.4-160.4-160.4z" p-id="2638" fill="#bfbfbf"></path><path d="M927.7 211.2h-80.2c-32.1 0-80.2-24.1-98.9-45.4l-53.5-61.5c-29.4-32.1-66.8-50.8-109.6-50.8H441.1c-48.1 0-80.2 16-115 53.5l-53.5 61.5c-16 18.7-64.2 42.8-96.2 42.8H98.9c-53.5-0.1-98.9 40-98.9 90.8v577.5c0 48.1 40.1 88.2 90.9 90.9h834.2c53.5 0 98.9-42.8 98.9-90.9V302.1c0-50.8-42.8-90.9-96.3-90.9zM513.3 794.1c-117.6 0-213.9-96.3-213.9-213.9 0-117.6 96.3-213.9 213.9-213.9s213.9 96.3 213.9 213.9c0 117.6-96.2 213.9-213.9 213.9z" p-id="2639" fill="#bfbfbf"></path></svg>