<svg version="1.0" xmlns="http://www.w3.org/2000/svg" width="800.000000" height="800.000000" viewBox="0 0 800.000000 800.000000" preserveAspectRatio="xMidYMid meet">
  <metadata>
    <rdf:RDF xmlns:rdf="http://www.w3.org/1999/02/22-rdf-syntax-ns#" xmlns:rdfs="http://www.w3.org/2000/01/rdf-schema#" xmlns:dc="http://purl.org/dc/elements/1.1/">
      <rdf:Description dc:format="image/svg+xml" dc:Label="1" dc:ContentProducer="001191330110MACRLGPT8B00000" dc:ProduceID="449502734" dc:ReservedCode1="HvAwnQOdU3cU0bsgRlCvnCXsk69H9/QFPWVYdicAULM=" dc:ContentPropagator="001191330110MACRLGPT8B00000" dc:PropagateID="449502734" dc:ReservedCode2="HvAwnQOdU3cU0bsgRlCvnCXsk69H9/QFPWVYdicAULM="/>
    </rdf:RDF>
  </metadata>
  <g transform="translate(163.026234,653.256955) scale(0.060956,-0.060956)" fill="#000000" stroke="none">
    <path d="M3792 7579 c-52 -26 -105 -86 -120 -138 -8 -25 -12 -128 -12 -290 l0 -251 -27 0 c-63 -1 -331 -62 -461 -105 -336 -112 -628 -291 -878 -540 -337 -335 -540 -724 -636 -1220 -21 -109 -22 -128 -25 -1493 l-4 -1382 -298 0 c-331 0 -358 -4 -420 -63 -45 -43 -81 -121 -81 -177 0 -87 70 -190 152 -224 33 -14 337 -16 2910 -16 l2872 0 43 21 c57 28 110 92 129 156 30 103 -16 213 -113 270 l-48 28 -302 3 -303 3 0 1282 c0 1279 -3 1406 -36 1607 -55 330 -205 675 -418 960 -87 116 -273 310 -381 397 -322 260 -756 445 -1142 489 l-63 7 0 261 c0 233 -2 265 -19 301 -23 49 -74 99 -123 119 -54 23 -144 20 -196 -5z m251 -1159 c634 -53 1190 -429 1467 -995 69 -140 110 -260 147 -428 l27 -122 3 -1357 4 -1358 -1791 0 -1790 0 0 1313 c0 1379 1 1391 45 1584 116 508 484 964 959 1189 233 110 475 166 786 182 14 1 78 -3 143 -8z" fill="#000000" stroke="#000000" stroke-width="90" stroke-linejoin="round" paint-order="stroke fill"/>
    <path d="M3072 1165 c-29 -13 -64 -37 -78 -52 -110 -116 -73 -314 71 -379 l53 -24 789 2 790 3 49 30 c104 65 143 195 91 308 -14 30 -39 65 -59 80 -78 60 -38 57 -880 57 l-773 0 -53 -25z" fill="#000000" stroke="#000000" stroke-width="90" stroke-linejoin="round" paint-order="stroke fill"/>
  </g>
</svg>