<svg width="133" height="52" viewBox="0 0 133 52" fill="none" xmlns="http://www.w3.org/2000/svg">
<rect x="1" y="1" width="131" height="50" rx="25" stroke="#BDC9C5" stroke-width="2" stroke-dasharray="6 4"/>
<path d="M53.8333 4.66667V2H69.8333V4.66667H53.8333ZM59.8333 21.3333H63.8333V18H67.1667V14H63.8333V10.6667H59.8333V14H56.5V18H59.8333V21.3333ZM55.1667 26C54.4333 26 53.8056 25.7389 53.2833 25.2167C52.7611 24.6944 52.5 24.0667 52.5 23.3333V8.66667C52.5 7.93333 52.7611 7.30556 53.2833 6.78333C53.8056 6.26111 54.4333 6 55.1667 6H68.5C69.2333 6 69.8611 6.26111 70.3833 6.78333C70.9056 7.30556 71.1667 7.93333 71.1667 8.66667V23.3333C71.1667 24.0667 70.9056 24.6944 70.3833 25.2167C69.8611 25.7389 69.2333 26 68.5 26H55.1667ZM55.1667 23.3333H68.5V8.66667H55.1667V23.3333ZM75.1667 16.3333C74.3889 15.9556 73.75 15.3278 73.25 14.45C72.75 13.5722 72.5 12.5333 72.5 11.3333C72.5 9.82222 72.8833 8.55556 73.65 7.53333C74.4167 6.51111 75.3667 6 76.5 6C77.6333 6 78.5833 6.51111 79.35 7.53333C80.1167 8.55556 80.5 9.82222 80.5 11.3333C80.5 12.5333 80.25 13.5722 79.75 14.45C79.25 15.3278 78.6111 15.9556 77.8333 16.3333V24.6667C77.8333 25.0444 77.7056 25.3611 77.45 25.6167C77.1944 25.8722 76.8778 26 76.5 26C76.1222 26 75.8056 25.8722 75.55 25.6167C75.2944 25.3611 75.1667 25.0444 75.1667 24.6667V16.3333ZM76.5 14C76.7667 14 77.0556 13.7611 77.3667 13.2833C77.6778 12.8056 77.8333 12.1556 77.8333 11.3333C77.8333 10.5111 77.6778 9.86111 77.3667 9.38333C77.0556 8.90556 76.7667 8.66667 76.5 8.66667C76.2333 8.66667 75.9444 8.90556 75.6333 9.38333C75.3222 9.86111 75.1667 10.5111 75.1667 11.3333C75.1667 12.1556 75.3222 12.8056 75.6333 13.2833C75.9444 13.7611 76.2333 14 76.5 14Z" fill="#BDC9C5"/>
<path d="M33.5114 43.9688C33.9723 43.4844 34.1832 42.9141 34.1442 42.2578H30.5465C30.6481 40.7734 30.6481 39.293 30.5465 37.8164H34.1442V36.5508H30.5699C30.1324 36.5508 29.6949 36.5586 29.2574 36.5742C29.2809 36.3398 29.2809 36.1055 29.2574 35.8711C29.6949 35.8945 30.1324 35.9062 30.5699 35.9062H38.5504C38.9879 35.9062 39.4254 35.8945 39.8629 35.8711C39.8395 36.1055 39.8395 36.3398 39.8629 36.5742C39.4254 36.5586 38.9879 36.5508 38.5504 36.5508H34.9762V37.8164H38.5504C38.4489 39.293 38.4449 40.7734 38.5387 42.2578H34.9762C35.0231 43.0781 34.7692 43.8008 34.2145 44.4258C35.9801 45.4727 37.9098 45.8594 40.0035 45.5859C39.8239 45.8672 39.7535 46.1719 39.7926 46.5C37.6832 46.7422 35.6403 46.2305 33.6637 44.9648C32.6559 45.8164 31.3785 46.3555 29.8317 46.582C29.7614 46.1992 29.5543 45.9258 29.2106 45.7617C29.8824 45.7383 30.5524 45.6113 31.2203 45.3809C31.8883 45.1504 32.4684 44.8516 32.9606 44.4844C32.4293 44.0938 31.9098 43.6523 31.402 43.1602L31.941 42.6211C32.5348 43.1992 33.0582 43.6484 33.5114 43.9688ZM34.9762 39.7031H37.7067V38.4609H34.9762V39.7031ZM34.1442 39.7031V38.4609H31.3903V39.7031H34.1442ZM34.9762 40.3477V41.6133H37.7067V40.3477H34.9762ZM34.1442 40.3477H31.3903V41.6133H34.1442V40.3477ZM48.0918 43.957L47.4473 44.6016L45.959 43.1133C45.0215 43.6992 44.0801 44.125 43.1348 44.3906C43.0879 44.0469 42.9434 43.75 42.7012 43.5C44.3262 43.0781 45.5879 42.4883 46.4864 41.7305C47.0567 41.2305 47.5957 40.6953 48.1035 40.125C48.3301 40.375 48.5801 40.5977 48.8535 40.793L48.3848 41.2383H52.1582C51.1895 42.9336 49.8457 44.2578 48.127 45.2109C47.291 45.6797 46.3692 46.0215 45.3614 46.2363C44.3535 46.4512 43.3262 46.5078 42.2793 46.4062C42.2403 46.0703 42.1426 45.7539 41.9864 45.457C43.6817 45.7695 45.3047 45.5918 46.8555 44.9238C48.4063 44.2559 49.6426 43.2422 50.5645 41.8828H47.6582C47.3535 42.1328 47.0449 42.3672 46.7324 42.5859L48.0918 43.957ZM47.1309 38.9883L46.4512 39.6094L45.1739 38.1914C44.416 38.8008 43.6348 39.2578 42.8301 39.5625C42.752 39.2266 42.5801 38.9453 42.3145 38.7188C43.7442 38.2188 44.8067 37.5742 45.502 36.7852C45.916 36.293 46.2949 35.7734 46.6387 35.2266C46.9043 35.4375 47.1895 35.6172 47.4942 35.7656C47.3301 35.9844 47.1621 36.1953 46.9903 36.3984H50.9395C50.0567 37.8516 48.8946 39.0605 47.4531 40.0254C46.0117 40.9902 44.4199 41.5898 42.6778 41.8242C42.5606 41.5117 42.3887 41.2266 42.1621 40.9688C43.6153 40.8906 44.9668 40.502 46.2168 39.8027C47.4668 39.1035 48.502 38.1836 49.3223 37.043H46.416C46.2364 37.2383 46.0567 37.4219 45.877 37.5938L47.1309 38.9883ZM63.2934 46.2656C62.934 46.2656 62.6449 46.1543 62.4262 45.9316C62.2074 45.709 62.0981 45.4141 62.0981 45.0469V40.9922H61.0903C61.2074 42.8125 60.5004 44.4688 58.9692 45.9609C58.5629 46.3594 58.1918 46.5742 57.8559 46.6055C57.5121 46.3242 57.1371 46.0898 56.7309 45.9023C58.3715 45.7539 59.4535 44.8125 59.977 43.0781C60.1801 42.3984 60.2621 41.7031 60.2231 40.9922H59.4379C59.0317 40.9922 58.6254 41 58.2192 41.0156C58.2426 40.7969 58.2426 40.5781 58.2192 40.3594C58.6254 40.3828 59.0317 40.3945 59.4379 40.3945H61.2074V37.9336H59.6723C59.352 38.7695 58.9692 39.5781 58.5239 40.3594C58.3129 40.1953 58.0707 40.1055 57.7973 40.0898C58.641 38.8555 59.1684 37.3711 59.3793 35.6367C59.6918 35.7305 60.0121 35.793 60.3403 35.8242C60.2153 36.3398 60.0668 36.8438 59.8949 37.3359H61.2074V36.7969C61.2074 36.2422 61.1957 35.6914 61.1723 35.1445C61.4692 35.1758 61.766 35.1758 62.0629 35.1445C62.0395 35.6914 62.0278 36.2422 62.0278 36.7969V37.3359H63.4457C63.8442 37.3359 64.2465 37.3281 64.6528 37.3125C64.6293 37.5312 64.6293 37.75 64.6528 37.9688C64.2465 37.9453 63.8442 37.9336 63.4457 37.9336H62.0278V40.3945H64.2309C64.6371 40.3945 65.0434 40.3828 65.4496 40.3594C65.4262 40.5781 65.4262 40.7969 65.4496 41.0156C65.0434 41 64.6371 40.9922 64.2309 40.9922H62.9067V45.0469C62.9067 45.1875 62.9438 45.3086 63.018 45.4102C63.0922 45.5117 63.1879 45.5625 63.3051 45.5625L64.4418 45.5508C64.5043 45.5508 64.5512 45.5293 64.5824 45.4863C64.6137 45.4434 64.6332 45.3945 64.641 45.3398L64.6645 44.918L64.8754 43.4297C65.1176 43.5859 65.3832 43.6641 65.6723 43.6641L65.3442 45.5156C65.3364 45.8359 65.2856 46.0703 65.1918 46.2188C65.1528 46.25 65.102 46.2656 65.0395 46.2656H63.2934ZM55.6059 46.3828C55.2934 46.1953 54.9028 46.0938 54.434 46.0781C54.7699 45.4453 55.1137 44.7227 55.4653 43.9102C55.8168 43.0977 56.3324 41.6875 57.0121 39.6797L57.4809 39.9258L56.1684 44.3672L55.6059 46.3828ZM56.5082 39.6445L55.7817 40.2188L54.0824 38.625L54.809 38.0391L56.5082 39.6445ZM56.7192 37.6641C56.1957 37.0703 55.6254 36.5156 55.0082 36L55.6879 35.3906C56.3364 35.9375 56.9418 36.5234 57.5043 37.1484L56.7192 37.6641ZM71.9676 37.4648H77.6746V41.707H76.8426V40.9922H72.8114V42.5156C72.8114 43.4219 72.5887 44.2168 72.1434 44.9004C71.6981 45.584 71.1278 46.0859 70.4324 46.4062C70.3153 46.0781 70.1004 45.8398 69.7879 45.6914C70.4364 45.5039 70.9637 45.1289 71.3699 44.5664C71.7762 44.0039 71.9793 43.3203 71.9793 42.5156L71.9676 37.4648ZM74.8504 37.3945C74.3504 36.7305 73.8074 36.1016 73.2215 35.5078L73.8778 34.8633C74.4949 35.4805 75.0653 36.1406 75.5887 36.8438L74.8504 37.3945ZM76.8426 40.3477V38.1094H72.7996L72.8114 40.3477H76.8426ZM66.4598 41.0859C67.2176 40.9453 67.9481 40.7461 68.6512 40.4883V38.3086H67.8895C67.452 38.3086 67.0145 38.3203 66.577 38.3438C66.6004 38.0859 66.6004 37.8281 66.577 37.5703C67.0145 37.5938 67.452 37.6055 67.8895 37.6055H68.6512V37.043C68.6512 36.457 68.6395 35.875 68.616 35.2969C68.8973 35.3281 69.1824 35.3281 69.4715 35.2969C69.4481 35.875 69.4364 36.457 69.4364 37.043V37.6055H69.9403C70.3778 37.6055 70.8114 37.5938 71.241 37.5703C71.2176 37.8281 71.2176 38.0859 71.241 38.3438C70.8114 38.3203 70.3778 38.3086 69.9403 38.3086H69.4364V40.1836C69.9598 39.9727 70.5535 39.7188 71.2176 39.4219L71.2879 40.043L69.4364 40.8398V45.1758C69.4285 45.9336 69.1551 46.3945 68.616 46.5586C68.2489 46.6445 67.8699 46.6836 67.4793 46.6758C67.5418 46.2383 67.4598 45.8906 67.2332 45.6328C67.452 45.6641 67.702 45.6816 67.9832 45.6855C68.2645 45.6895 68.4461 45.6543 68.5281 45.5801C68.6102 45.5059 68.6512 45.2656 68.6512 44.8594V41.1914L68.2059 41.3906C67.7371 41.6172 67.2762 41.8516 66.8231 42.0938C66.7762 41.6875 66.6551 41.3516 66.4598 41.0859ZM90.6965 40.7344C90.6731 40.9766 90.6731 41.2227 90.6965 41.4727C90.2434 41.4492 89.7903 41.4375 89.3371 41.4375H87.966V45.2695C87.966 45.7617 87.7864 46.1016 87.427 46.2891C87.0442 46.4844 86.4934 46.5781 85.7746 46.5703C85.8606 46.1797 85.7668 45.8359 85.4934 45.5391C85.7434 45.5703 86.0383 45.5879 86.3782 45.5918C86.718 45.5957 86.927 45.5664 87.0051 45.5039C87.0832 45.4336 87.1223 45.2461 87.1223 44.9414V41.4375H85.7512C85.2903 41.4375 84.8332 41.4492 84.3801 41.4727C84.4035 41.2227 84.4035 40.9766 84.3801 40.7344C84.8332 40.7578 85.2903 40.7695 85.7512 40.7695H87.1223V38.8008L88.6809 37.2773H86.2551C85.802 37.2773 85.3489 37.2891 84.8957 37.3125C84.9192 37.0625 84.9192 36.8125 84.8957 36.5625C85.3489 36.5859 85.802 36.5977 86.2551 36.5977H89.9699L90.0637 37.3594C89.8528 37.4062 89.6692 37.5039 89.5129 37.6523L87.966 39.1523V40.7695H89.3371C89.7903 40.7695 90.2434 40.7578 90.6965 40.7344ZM81.509 35.6016C81.8371 35.6719 82.1887 35.707 82.5637 35.707C82.4309 36.5508 82.2707 37.3906 82.0832 38.2266H82.9621C83.3762 38.2266 83.7864 38.2148 84.1926 38.1914C84.1692 38.3945 84.1692 38.5938 84.1926 38.7891C84.1301 38.7891 84.0676 38.7852 84.0051 38.7773C83.7395 40.3398 83.3528 41.8164 82.8449 43.207C83.509 43.6836 84.0442 44.2578 84.4504 44.9297C84.1145 45.0469 83.802 45.1875 83.5129 45.3516C83.2629 44.8438 82.9231 44.3945 82.4934 44.0039C81.9153 45.2148 81.0364 46.1367 79.8567 46.7695C79.7004 46.4727 79.466 46.2461 79.1535 46.0898C80.3332 45.4961 81.2121 44.6211 81.7903 43.4648C81.2278 43.0977 80.5949 42.8516 79.8918 42.7266C80.3918 41.4297 80.7824 40.1094 81.0637 38.7656L79.5403 38.7891C79.5637 38.5938 79.5637 38.3945 79.5403 38.1914L81.1692 38.2266C81.3332 37.3594 81.4465 36.4844 81.509 35.6016ZM83.0442 38.7656H81.966L81.9192 38.9414C81.6457 40.0586 81.3215 41.1641 80.9465 42.2578C81.3606 42.3906 81.7473 42.5547 82.1067 42.75C82.4973 41.6484 82.8098 40.3203 83.0442 38.7656ZM102.769 37.7344V45.2109C102.769 45.6953 102.601 46.0391 102.265 46.2422C101.914 46.4453 101.39 46.543 100.695 46.5352C100.781 46.1523 100.695 45.8164 100.437 45.5273C100.672 45.5586 100.943 45.5762 101.252 45.5801C101.56 45.584 101.754 45.5547 101.832 45.4922C101.902 45.3984 101.937 45.1797 101.937 44.8359V38.3555H101.398C101.195 40.168 100.8 41.8398 100.214 43.3711C99.9254 44.0664 99.527 44.6836 99.0192 45.2227C98.4645 45.832 97.7223 46.2539 96.7926 46.4883C96.7535 46.1445 96.6168 45.8477 96.3824 45.5977C97.2418 45.4414 97.9781 45.0352 98.5914 44.3789C99.2047 43.7227 99.652 42.8008 99.9332 41.6133C100.16 40.668 100.347 39.582 100.496 38.3555H99.7574C99.5934 39.2461 99.3668 40.1445 99.0778 41.0508C98.7887 41.957 98.4313 42.7031 98.0055 43.2891C97.5797 43.875 96.9996 44.3008 96.2653 44.5664C96.1871 44.2383 96.0153 43.9609 95.7496 43.7344C96.984 43.375 97.8356 42.3867 98.3043 40.7695C98.4996 40.0898 98.6793 39.2852 98.8434 38.3555H98.1871C97.734 39.6055 97.1871 40.6641 96.5465 41.5312C96.3043 41.2891 96.0114 41.1445 95.6676 41.0977C96.5035 40.082 97.0699 39.1172 97.3668 38.2031C97.6324 37.3281 97.8356 36.4062 97.9762 35.4375C98.3043 35.5156 98.6324 35.5586 98.9606 35.5664C98.8199 36.3008 98.6324 37.0234 98.3981 37.7344H102.769ZM92.6793 36.7383C92.9215 36.8164 93.1832 36.8711 93.4645 36.9023C93.3864 37.3867 93.2965 37.8672 93.1949 38.3438L93.1598 38.5312H94.1207V37.0898C94.1207 36.543 94.109 35.9922 94.0856 35.4375C94.3512 35.4688 94.6168 35.4688 94.8824 35.4375C94.8512 35.9922 94.8356 36.543 94.8356 37.0898V38.5312L96.2887 38.4961C96.2653 38.7148 96.2653 38.9336 96.2887 39.1523L94.8356 39.1289V41.4375L96.4762 40.6992L96.5348 41.2266L94.8356 42.0352V44.9414C94.8356 45.4883 94.8512 46.0391 94.8824 46.5938C94.6168 46.5625 94.3512 46.5625 94.0856 46.5938C94.109 46.0391 94.1207 45.4883 94.1207 44.9414V42.3867L93.4996 42.7031L92.152 43.4414C92.1051 43.0586 91.9879 42.7422 91.8004 42.4922C92.5973 42.3047 93.3707 42.0547 94.1207 41.7422V39.1289H93.0192L92.4567 41.3906C92.2457 41.2734 92.0035 41.2383 91.7301 41.2852C91.9879 40.3633 92.2184 39.3203 92.4215 38.1562L92.6793 36.7383Z" fill="#BDC9C5"/>
</svg>
