<svg width="48" height="48" viewBox="0 0 48 48" fill="none" xmlns="http://www.w3.org/2000/svg">
<rect width="48" height="48" rx="24" fill="#FFDAD6"/>
<path d="M22.5 29.5H25.5V27H28V24H25.5V21.5H22.5V24H20V27H22.5V29.5V29.5M19 33C18.45 33 17.9792 32.8042 17.5875 32.4125C17.1958 32.0208 17 31.55 17 31V20C17 19.45 17.1958 18.9792 17.5875 18.5875C17.9792 18.1958 18.45 18 19 18H29C29.55 18 30.0208 18.1958 30.4125 18.5875C30.8042 18.9792 31 19.45 31 20V31C31 31.55 30.8042 32.0208 30.4125 32.4125C30.0208 32.8042 29.55 33 29 33H19V33M19 31H29V31V31V20V20V20H19V20V20V31V31V31V31M18 17V15H30V17H18V17M19 20V20V20V20V31V31V31V31V31V31V20V20V20V20" fill="#BA1A1A"/>
</svg>
