<svg version="1.0" xmlns="http://www.w3.org/2000/svg" width="800.000000" height="800.000000" viewBox="0 0 800.000000 800.000000" preserveAspectRatio="xMidYMid meet">
  <metadata>
    <rdf:RDF xmlns:rdf="http://www.w3.org/1999/02/22-rdf-syntax-ns#" xmlns:rdfs="http://www.w3.org/2000/01/rdf-schema#" xmlns:dc="http://purl.org/dc/elements/1.1/">
      <rdf:Description dc:format="image/svg+xml" dc:Label="1" dc:ContentProducer="001191330110MACRLGPT8B00000" dc:ProduceID="449502735" dc:ReservedCode1="pUCItOgz4khvZsHxYPx1EyzBqmvHRT09ThnhapylFk0=" dc:ContentPropagator="001191330110MACRLGPT8B00000" dc:PropagateID="449502735" dc:ReservedCode2="pUCItOgz4khvZsHxYPx1EyzBqmvHRT09ThnhapylFk0="/>
    </rdf:RDF>
  </metadata>
  <g transform="translate(178.796440,627.191360) scale(0.055698,-0.055698)" fill="#000000" stroke="none">
    <path d="M3625 7420 c-1014 -89 -1931 -524 -2568 -1218 -342 -373 -570 -760 -716 -1217 -142 -443 -177 -926 -101 -1396 69 -422 253 -879 493 -1222 l41 -58 -18 -92 c-9 -51 -46 -229 -82 -397 -136 -639 -176 -844 -170 -879 8 -50 50 -108 96 -131 52 -26 108 -25 178 4 83 34 913 398 1004 439 l77 35 185 -94 c919 -470 1967 -585 2983 -328 689 174 1276 500 1751 973 146 145 234 247 357 416 992 1362 747 3161 -581 4269 -576 480 -1286 781 -2079 882 -142 18 -699 27 -850 14z m830 -384 c477 -69 837 -180 1225 -377 553 -280 1019 -709 1311 -1204 70 -119 178 -346 224 -469 118 -318 179 -730 156 -1055 -32 -450 -147 -822 -381 -1226 -164 -284 -454 -614 -737 -840 -478 -382 -1086 -636 -1733 -724 -545 -75 -1019 -48 -1545 89 -323 84 -588 193 -962 395 -76 40 -114 55 -143 55 -28 0 -102 -28 -267 -102 -274 -122 -657 -287 -660 -284 -2 2 68 334 157 741 45 206 60 292 56 324 -5 33 -29 78 -103 190 -250 379 -373 684 -455 1127 -19 104 -22 155 -22 399 0 260 2 290 27 425 65 359 178 661 364 972 205 344 510 670 866 926 91 66 348 222 445 271 289 145 659 269 990 331 263 49 405 59 752 55 225 -2 359 -8 435 -19z" fill="#000000" stroke="#000000" stroke-width="100" stroke-linejoin="round" paint-order="stroke fill"/>
  </g>
</svg>