<svg width="20" height="20" viewBox="0 0 24 24" fill="none" xmlns="http://www.w3.org/2000/svg">
<path d="M19.14 12.936c.036-.315.06-.636.06-.936 0-.3-.024-.615-.06-.936l2.037-1.58a.49.49 0 0 0 .12-.612l-1.938-3.357a.488.488 0 0 0-.588-.222l-2.407.975a7.72 7.72 0 0 0-1.645-.952l-.364-2.557A.488.488 0 0 0 14 2h-4a.49.49 0 0 0-.485.42l-.364 2.557c-.582.225-1.125.525-1.645.952l-2.407-.975a.488.488 0 0 0-.588.222L2.163 9.012a.486.486 0 0 0 .12.612l2.037 1.58c-.036.315-.06.636-.06.936 0 .3.024.615.06.936l-2.037 1.58a.49.49 0 0 0-.12.612l1.938 3.357a.488.488 0 0 0 .588.222l2.407-.975c.52.427 1.063.727 1.645.952l.364 2.557A.488.488 0 0 0 10 22h4a.49.49 0 0 0 .485-.42l.364-2.557a7.72 7.72 0 0 0 1.645-.952l2.407.975a.488.488 0 0 0 .588-.222l1.938-3.357a.486.486 0 0 0-.12-.612l-2.037-1.58zM12 15.6A3.6 3.6 0 1 1 12 8.4a3.6 3.6 0 0 1 0 7.2z" fill="#5E8C83"/>
</svg>
