<svg width="40" height="40" viewBox="0 0 40 40" fill="none" xmlns="http://www.w3.org/2000/svg">
<rect width="40" height="40" rx="20" fill="#76D7C4"/>
<path d="M12.85 30V23.225L17.775 28.15C18.675 27.25 19.4792 26.2792 20.1875 25.2375C20.8958 24.1958 21.25 23.0417 21.25 21.775C21.25 20.8417 21.0667 19.9458 20.7 19.0875C20.3333 18.2292 19.825 17.475 19.175 16.825L16.35 14H19.85L23.85 10L25.9 12.05C26.5667 12.7167 27.0833 13.4708 27.45 14.3125C27.8167 15.1542 28 16.05 28 17C28 17.95 27.8167 18.8458 27.45 19.6875C27.0833 20.5292 26.5667 21.2833 25.9 21.95L23.85 24V30H12.85ZM17.775 25.325L12.575 20.125C12.3917 19.9417 12.25 19.725 12.15 19.475C12.05 19.225 12 18.9667 12 18.7C12 18.4333 12.05 18.1792 12.15 17.9375C12.25 17.6958 12.3917 17.4833 12.575 17.3L14.675 15.175L17.775 18.25C18.2417 18.7167 18.6042 19.2542 18.8625 19.8625C19.1208 20.4708 19.25 21.1083 19.25 21.775C19.25 22.4417 19.125 23.0792 18.875 23.6875C18.625 24.2958 18.2583 24.8417 17.775 25.325Z" fill="#005D51"/>
</svg>
