<?xml version="1.0" standalone="no"?><!DOCTYPE svg PUBLIC "-//W3C//DTD SVG 1.1//EN" "http://www.w3.org/Graphics/SVG/1.1/DTD/svg11.dtd"><svg class="icon" width="200px" height="200.00px" viewBox="0 0 1024 1024" version="1.1" xmlns="http://www.w3.org/2000/svg"><path fill="#006b5d" d="M705.004692 77.27253C701.850757 78.092114 696.594127 79.960921 693.558154 81.477813 687.132192 84.749819 676.503071 95.263101 673.115226 101.920763 671.830034 104.491148 668.442189 116.053589 665.522077 127.618176 652.206711 180.768072 639.940525 225.273494 636.670686 233.21637 618.330346 277.721791 584.340395 304.35467 536.213262 311.829813 530.255033 312.763133 487.15281 313.348871 398.961571 313.932465 270.701937 314.634064 270.46807 314.634064 260.538403 317.202303 247.456903 320.708154 227.013975 330.635676 216.150987 338.812418 211.36209 342.549989 206.807059 345.23838 205.989599 345.004514 203.419214 343.953188 185.312762 329.702356 174.799544 320.240421 138.938597 288.466773 121.29992 251.438639 123.052846 211.722115 124.219989 183.104591 136.136491 160.55901 157.510594 146.542045 170.594197 137.89757 177.136062 135.912924 192.787947 135.912924 205.169994 135.794918 206.691198 136.028784 212.881149 139.066923 224.677456 144.789162 229.58436 154.017188 228.7669 168.735753 228.299167 176.67865 227.599714 179.59874 224.327729 186.024702 219.772698 194.903044 208.441978 206.349625 198.28059 212.189848 182.976286 220.950184 178.655121 234.501562 187.18159 246.883608 195.008627 258.212183 211.012363 258.448195 222.574804 247.467202 225.145189 245.014823 230.285959 240.809518 234.139391 238.005267 259.13735 219.782997 273.737909 189.99614 271.869123 160.910883 270.935803 147.593328 267.547959 137.08011 260.422543 126.566828 249.441549 110.097505 233.206071 99.232372 213.348882 94.911207 201.316562 92.224962 177.136062 93.044524 165.923305 96.430266 145.130672 102.738222 129.828535 111.966291 114.991964 127.268449 99.340079 143.272206 89.760138 160.44315 84.037899 182.520997 80.534216 196.537963 79.59875 226.558686 82.284996 242.092565 87.65961 273.164614 100.741175 300.848819 122.351246 327.013965 132.748625 339.514017 154.124895 359.605073 167.907994 369.884467L179.588441 378.644802 176.202742 386.004085C172.113298 394.998287 158.446017 429.224314 132.047048 496.15731 121.29992 523.491831 104.246983 566.596157 94.083449 591.941697 58.690235 680.952476 61.492341 673.009665 61.492341 684.222379 61.492341 700.80973 69.203495 717.628801 81.001949 726.625148 92.214663 735.151617 108.218463 739.94266 121.651836 738.657468 144.896805 736.554816 158.564044 725.339956 174.565677 695.203437 201.432422 644.857727 222.109217 618.574511 251.428341 597.5502 275.372828 580.37711 301.773986 570.215722 337.051339 564.609365 355.857203 561.571247 371.976821 560.519835 406.904447 559.702461L439.843137 559.000862 447.086473 555.613017C453.276509 552.695051 455.497167 550.592399 462.15485 541.945779 475.93795 524.309247 486.451275 512.276992 497.663925 501.647807 553.851939 448.148098 624.990239 424.669347 708.744452 432.02863 737.477837 434.598993 742.384741 434.365084 749.977975 430.041774 754.882648 427.239732 757.568893 424.551277 761.306464 418.94492 763.994855 414.857622 767.850433 409.249033 769.835079 406.565019L773.45679 401.773976 802.308181 401.306286C828.355321 400.840656 831.979177 400.490929 839.336314 398.152265 863.167087 390.443256 880.338031 375.023091 888.8645 353.530983 893.537537 341.73253 895.172456 332.270595 894.588863 320.124561 894.239136 311.246219 893.537537 308.909701 890.149692 302.367878 885.944388 294.540863 881.15549 290.335558 867.606258 282.276822 856.74327 275.968866 852.304099 269.545049 841.556972 244.896817 833.729957 226.790407 828.825199 217.680345 822.16537 209.15173 814.340501 198.990342 801.256855 187.425755 785.368958 176.67865 776.958349 170.956411 769.13348 164.882278 767.614421 162.545802 764.812315 158.574364 764.228722 154.952653 760.607011 119.677445 759.205958 105.424468 755.818113 97.599619 747.407591 89.30485 735.727015 77.624403 720.774626 73.419056 705.004692 77.27253ZM717.386782 120.143033C717.854514 121.078455 719.139707 131.00602 720.191033 142.22088 721.358219 153.433616 722.993139 165.350054 723.810598 168.735753 728.01586 185.089215 736.426511 194.903044 758.270492 209.501457 784.669504 227.024274 790.8616 234.267696 801.958454 260.20112 813.055308 286.482127 820.296585 298.046713 832.44691 309.141422 836.184482 312.531412 842.024705 316.736716 845.41255 318.371635 851.484494 321.407608 851.6025 321.525614 851.6025 326.430372 851.6025 332.388601 848.214656 341.850536 844.127357 347.223026 842.374432 349.559545 837.819401 352.829384 833.262224 355.050042L825.437354 358.903474 793.198119 359.489212C761.658337 360.072806 760.956738 360.072806 754.648781 363.108778 745.654579 367.314082 740.397949 372.220986 734.08995 382.384519L728.717502 391.026849 720.306893 390.093529C715.751948 389.625796 696.478266 389.276069 677.554397 389.39193 647.417813 389.39193 641.225717 389.741656 628.026211 391.962315 550.813821 405.277681 489.02166 441.37464 437.85849 503.28264L426.643695 516.831959 398.141966 517.533558C355.739197 518.702955 330.743383 521.504996 306.097296 527.697092 253.530993 540.896512 215.099661 564.959092 181.8091 605.375069 165.689525 624.882532 153.189429 644.389994 136.252395 676.279417 127.607877 692.750993 124.338038 695.904972 116.629029 695.904972 111.837964 695.904972 110.321073 695.319233 107.400982 692.514981 105.062297 690.180608 104.010971 687.959993 104.010971 685.391711 104.010971 683.289059 116.626905 650.114315 132.748625 609.696234 148.518538 570.097716 164.52015 529.681674 168.257721 520.103943 205.755733 424.903149 213.932475 405.511547 220.356292 396.049699 232.270605 378.413082 247.690769 366.380762 267.547959 359.371206L275.141108 356.569101 404.218202 355.983362C544.623871 355.283908 539.483101 355.517775 566.115979 348.392359 603.613991 338.462691 637.138419 314.166331 659.448073 280.641903 673.233232 259.965108 679.189316 244.896817 689.818523 203.545373 703.369816 151.330942 711.780424 120.492781 712.947611 119.091707 714.348664 117.338781 716.219531 117.806514 717.386782 120.143033Z"  /><path fill="#006b5d" d="M731.871437 248.868255C717.620648 255.525938 713.649146 273.866214 723.928604 285.780527 729.301052 292.088484 735.493191 295.242462 742.616462 295.242462 760.373144 295.126601 772.63933 276.554605 765.280048 260.784714 759.321818 247.816928 745.070986 242.794165 731.871437 248.868255Z"  /><path fill="#006b5d" d="M640.757985 483.891124C583.52079 493.353059 535.97931 523.725654 504.55762 570.683455 471.966512 619.391992 463.673909 679.901214 482.01204 736.202943 486.217344 749.286589 497.314198 771.598303 505.724806 784.09621 534.694118 827.316439 578.03025 856.401696 630.946323 867.850423 641.459584 870.068935 646.716214 870.418662 669.961248 870.418662 691.221636 870.536668 698.930645 870.068935 706.757575 868.434016 741.683142 861.190594 772.053591 847.291634 795.532492 827.784172 799.272209 824.630194 802.775914 822.059809 803.359507 822.059809 803.82724 822.059809 810.83465 828.483625 818.895532 836.426501 831.275433 848.458821 876.366593 892.380649 919.352956 934.081819 925.427046 940.037903 932.084729 945.646406 934.187381 946.579726 942.482129 950.201437 952.643517 947.281325 958.601747 939.33845 962.689045 933.963813 963.858377 923.684419 960.938266 918.078062 959.88694 916.093416 949.489539 905.112422 937.693232 893.665842 908.292426 864.934173 878.933974 836.15925 849.617854 807.341244L831.745311 789.936433 836.534208 782.929023C843.425758 772.649629 854.406752 749.636316 859.077643 735.619286 871.577695 697.655751 871.459689 654.553528 858.727916 616.589929 848.798249 587.152799 834.081829 563.673899 810.83465 540.428951 781.633532 511.343543 749.510157 493.820791 709.911639 485.528189 694.843347 482.374125 655.59447 481.322885 640.76013 483.891124ZM696.242254 525.944167C751.728669 534.938369 800.439395 576.407732 818.196078 629.553423 835.950615 682.937186 821.815643 742.744766 781.749392 782.929023 759.437679 805.472458 733.15663 819.489424 700.917437 826.380973 687.014186 829.301085 652.906165 829.301085 639.241071 826.380973 584.923988 814.584666 542.171492 777.788253 524.065082 727.442608 516.238067 705.9505 513.31802 679.901214 516.238067 658.2911 525.584141 588.088265 580.95255 534.005048 652.438432 525.008701 661.784506 523.841515 686.198872 524.425108 696.244464 525.944167Z"  /><path fill="#006b5d" d="M359.828641 593.810569C342.42383 596.380953 317.893604 601.16983 309.601001 603.624397 296.749077 607.477722 288.57448 616.823796 288.57448 627.92065 288.57448 633.992594 319.062936 706.300226 326.653939 718.332546 332.260296 727.208742 339.619579 733.166971 349.31538 736.904478 358.661454 740.408183 374.079473 739.708794 383.423401 735.385484 392.301743 731.298186 400.712351 723.237304 404.685935 714.944701 410.524013 703.146248 410.757879 698.591217 407.370034 653.152411 404.100196 607.361861 403.866329 606.310599 394.872128 598.717386 386.811246 591.707766 380.50329 590.890285 359.828641 593.810569ZM365.553004 659.342426C366.252457 672.074199 367.187923 685.507571 367.655656 689.129368 368.239249 694.853646 368.005383 696.020832 366.252457 696.604425 365.201131 697.072158 363.566212 696.604425 362.399026 695.437239 360.764106 693.802405 337.401066 640.886289 337.98466 640.18469 338.568253 639.716957 357.024389 636.562979 360.53024 636.447119L364.149805 636.331258 365.553004 659.342426Z"  /></svg>