<?xml version="1.0" standalone="no"?><!DOCTYPE svg PUBLIC "-//W3C//DTD SVG 1.1//EN" "http://www.w3.org/Graphics/SVG/1.1/DTD/svg11.dtd"><svg class="icon" width="200px" height="200.00px" viewBox="0 0 1024 1024" version="1.1" xmlns="http://www.w3.org/2000/svg"><path fill="#006b5d" d="M474.122946 66.302719C365.278339 76.792389 267.537098 121.958691 192.628966 196.497742 118.089871 270.667843 73.91053 362.483032 62.925191 466.517217 60.457812 490.332952 61.198054 550.434579 64.16108 572.278647 68.849141 604.981293 79.587696 645.088351 92.051287 675.941584L99.331191 693.957899 94.396347 707.410595C71.687745 769.608396 66.257297 829.461095 79.585551 869.074672 88.965964 897.213765 111.550187 921.153986 139.193633 932.508319 157.334433 939.910521 167.824082 941.764289 193.244743 941.764289 225.9496 941.886587 249.643081 937.44312 292.713165 923.252349L317.518049 915.107782 326.896316 919.549103C366.512039 938.307783 423.279414 953.116477 471.533184 957.311058 492.388018 959.040384 532.2484 958.793644 554.832581 956.695281 701.936893 943.242584 832.378699 859.449665 904.943873 731.597556 934.685704 679.395945 953.073201 622.753013 960.477548 561.170989 963.316131 537.724248 963.191688 487.372114 960.477548 463.676488 955.171564 419.250342 945.791151 383.217778 929.130834 342.859689L922.222113 326.201517 924.442774 320.648794C944.681894 268.198297 953.935718 211.061885 947.889515 174.162469 945.297671 158.489069 941.843311 147.750492 934.561261 133.559764 929.377574 123.563574 926.045511 119.24455 917.038427 109.98858 901.36507 94.192926 884.951493 85.308139 860.886829 79.628784 847.187393 76.545692 813.373279 75.311992 795.479262 77.285869 768.700457 80.371171 737.84937 88.271165 710.943977 99.005473L697.368898 104.435856 681.942367 98.26521C644.427152 83.332073 604.073354 72.842403 565.940217 68.029899 548.046199 65.809239 490.536459 64.697857 474.122946 66.302719ZM569.02554 125.415154C652.080299 138.74345 719.459727 170.583644 780.548271 225.499396 806.586855 248.823839 840.029786 290.906963 856.56566 320.895534L861.009126 329.040101 852.495522 345.453678C827.690638 392.842785 795.972742 440.476487 754.260801 492.680244 653.067302 619.789987 495.226665 756.404586 366.634336 828.351837 347.259879 839.210545 320.603372 852.416501 318.135971 852.416501 315.790868 852.416501 295.798488 840.444245 283.950675 832.055083 221.630576 787.380116 176.09307 731.228519 146.598001 662.366591 134.625745 634.598681 125.865401 603.37641 120.186089 568.328596 117.965385 554.260122 117.471948 546.609035 117.471948 515.508976 117.349651 492.308997 117.965385 474.168304 118.952389 465.530257 126.358881 404.566156 147.2138 348.661298 182.508333 295.841764 242.240879 206.247235 339.977829 143.927137 447.468585 126.771194 474.494065 122.576614 483.378852 121.960836 519.044589 122.454316 545.823394 122.823332 556.437507 123.441277 569.02554 125.415154ZM835.094985 131.832584C867.057476 135.040204 883.842236 147.874935 891.244437 175.024965 892.973763 181.073314 893.467243 187.366258 893.467243 201.436877 893.3428 219.453192 891.86236 231.298859 887.296596 251.662423 885.07379 261.28743 885.938453 261.658613 874.461823 246.478736 847.680873 210.566259 810.659138 174.409187 776.351544 150.466821L762.036331 140.470631 768.082535 138.619008C781.904268 134.546767 797.824365 132.079324 819.668368 130.598883 821.148809 130.598883 828.059675 131.092363 835.094985 131.832584ZM895.563461 418.016706C902.84551 446.278096 905.561796 467.132994 906.177574 503.416654 906.671054 524.395909 906.299871 541.425349 905.437353 550.312282 898.773227 614.852955 877.669443 673.471974 841.634669 727.772013 827.072715 749.862756 812.261876 767.881216 793.011861 787.008933 729.702721 850.440435 651.091322 888.080092 557.055429 900.052349 532.619583 903.259969 485.230475 902.888786 459.560928 899.434426 432.288644 895.855622 391.19248 886.599652 387.860417 883.392032 387.366937 882.898552 392.921806 878.948565 400.20171 874.629542 455.982125 841.926831 516.083794 799.350227 578.281424 748.628992 645.660766 693.711159 731.060864 609.547057 781.904268 548.211773 798.564585 527.974798 801.034131 524.889475 813.497722 508.722638 837.191203 477.869447 855.827586 451.0906 874.33738 421.10203 880.754767 410.859099 886.678673 401.234028 887.790076 399.506912L889.763997 396.421503 890.750957 400.122689C891.36888 402.221052 893.467243 410.243322 895.563461 418.016706ZM164.245257 797.498604C183.126256 820.327422 220.64147 855.501824 242.978954 871.419776 247.544718 874.751839 251.123521 877.590422 250.876781 877.961605 249.767523 879.070862 230.637661 883.389886 218.91429 885.119212 212.250163 886.106172 201.267013 886.970835 194.480589 886.970835 156.718677 886.970835 136.230628 872.406736 129.566502 841.062168 126.112141 825.266514 128.57952 790.834477 134.872485 768.250253L136.724108 761.217089 145.486598 773.1872C150.176805 779.726884 158.690409 790.71218 164.245257 797.498604Z"  /><path fill="#006b5d" d="M495.966886 208.963522C489.673942 211.184182 482.145152 218.219492 478.937446 224.883618 475.605468 231.79234 475.727765 244.258076 479.184357 250.79776 489.673942 270.914583 515.587997 274.493386 530.152182 257.955367 538.912527 247.959176 540.51741 237.100469 535.086983 224.634733 528.916337 210.690702 511.271269 203.655392 495.966886 208.963522Z"  /><path fill="#006b5d" d="M460.054344 347.921078C454.872868 349.648258 447.962001 357.299345 446.357118 363.223252 445.370157 366.555315 445.616897 370.011821 446.850533 376.304765 454.254945 411.230218 436.97885 440.229747 404.645177 447.018317 394.031064 449.238891 390.94574 449.238891 380.20933 447.018317 363.179976 443.315156 355.651186 444.797656 349.233799 453.311346 346.766399 456.396584 345.654996 459.60635 345.285959 464.047735 344.174556 478.487284 355.035409 487.618855 377.619632 491.446544 423.650597 499.219885 464.251135 478.858424 484.612552 437.764492 496.21354 414.191163 497.447326 381.979786 487.697876 360.509111 482.763075 349.772701 470.790819 344.342275 460.054344 347.921078Z"  /><path fill="#006b5d" d="M224.713754 475.89763C216.324592 477.993847 207.313217 485.151454 203.487673 492.555801 200.15561 499.097631 199.90887 510.327521 203.118636 517.731868 206.079517 524.640589 213.361566 532.047082 219.90125 534.761179 225.825157 537.228558 238.41319 536.984028 244.459394 534.145445 267.537098 523.409034 268.401761 489.223738 245.817537 479.105336 238.65993 475.773187 230.14418 474.537341 224.715899 475.895484Z"  /></svg>