<?xml version="1.0" standalone="no"?><!DOCTYPE svg PUBLIC "-//W3C//DTD SVG 1.1//EN" "http://www.w3.org/Graphics/SVG/1.1/DTD/svg11.dtd"><svg class="icon" width="200px" height="200.00px" viewBox="0 0 1024 1024" version="1.1" xmlns="http://www.w3.org/2000/svg"><path fill="#717171" d="M335.147267 118.591873C300.50595 126.459904 274.086716 147.712444 259.406264 179.534393 253.301925 192.803016 251.070462 202.080774 250.366693 218.520627 249.308894 242.004629 254.829619 261.733766 268.098241 281.694631 305.672645 338.058382 386.814218 345.22052 434.488138 296.370792 456.094771 274.178463 466.192077 247.523209 464.548519 216.641048 462.081036 172.372255 432.726569 135.383611 388.575787 120.941282 379.649935 118.003968 376.596692 117.534031 360.392838 117.300178 348.064005 117.064158 339.962078 117.418188 335.147267 118.591873ZM372.017902 166.735666C398.203262 173.663908 415.58284 195.974268 415.58284 222.511512 415.58284 266.312556 369.316544 293.55357 329.274658 273.356684 321.642625 269.365798 309.783687 257.504714 305.790655 249.518651 296.161034 230.615585 297.218833 208.772995 308.492013 191.277446 321.760635 170.846707 348.5339 160.395307 372.017902 166.735666Z"  /><path fill="#717171" d="M625.185961 119.649651C611.329498 123.404517 602.639602 127.399694 591.014624 135.031726 568.822124 149.825897 553.322124 172.724183 546.979556 199.967299 544.866167 209.24289 544.514282 213.120057 545.102187 226.386534 545.805956 243.530177 547.801399 252.925924 553.555999 265.488631 564.241274 288.974779 581.972822 307.176222 605.22295 318.331391 661.704711 345.690415 728.753737 319.387045 752.473759 260.442092 757.640455 247.759229 759.047993 238.835522 758.932128 220.749944 758.814118 201.492847 756.582655 191.161603 749.06859 176.129267 736.151895 150.059771 712.90181 130.5688 683.309135 120.941282 674.503439 118.003968 671.216322 117.652062 654.540513 117.182211 637.514794 116.830283 634.813436 117.066303 625.185961 119.649651ZM664.757953 166.265728C685.776618 170.728697 703.154179 187.284436 708.556851 207.835352 718.068462 244.590122 690.355408 280.051073 652.190954 280.051073 636.10511 280.051073 622.718478 274.648358 610.977549 263.375178 587.139517 240.479081 587.609412 203.6063 612.033139 180.592193 625.65371 167.675455 645.734731 162.27274 664.757953 166.265728Z"  /><path fill="#717171" d="M157.132307 321.148613C131.180822 324.201856 107.932882 336.060794 89.613387 355.553911 73.761417 372.461534 64.60169 392.660565 62.018343 416.496452 56.263743 469.573044 94.074167 519.948364 147.736561 530.751649 162.062982 533.686924 184.727351 532.747156 198.699742 528.520186 229.699913 519.244595 253.77182 498.695782 266.570547 470.746751 280.309064 440.686434 280.07519 411.329757 265.984788 381.62126 250.014809 348.039888 217.13506 325.023635 179.55851 321.264478 172.984277 320.560709 166.995803 320.09296 166.174024 320.09296 165.468109 320.208824 161.359235 320.678719 157.132307 321.148613ZM186.720648 371.6419C222.419765 382.67906 238.623619 425.656179 218.896628 456.774359 209.033132 472.390309 191.653469 482.723699 173.336162 484.015373 155.604613 485.191182 141.044317 479.906477 128.3636 467.693573 96.893556 437.517263 108.516453 386.202196 149.970169 371.993785 160.419424 368.470648 176.037519 368.236774 186.722794 371.6419Z"  /><path fill="#717171" d="M831.851618 322.910182C782.298121 334.183361 747.892759 375.986816 747.656846 425.068274 747.541003 439.042811 749.06859 449.258191 752.825644 460.297582 764.566572 494.466773 792.045752 519.712344 828.330627 529.693849 841.011345 533.098912 870.719842 532.865102 883.516424 529.223955 903.715455 523.471565 925.086004 510.084868 936.947088 495.994467 968.533018 458.181897 971.116365 405.225418 943.521322 366.357195 936.007299 355.907941 920.037319 341.345499 909.470055 335.357025 904.419224 332.539803 894.907613 328.310751 888.449244 325.963424 876.94219 322.088403 875.768527 321.852382 857.685094 321.618508 844.886366 321.382488 836.666429 321.736518 831.851618 322.910182ZM872.48141 371.6419C907.356602 382.327175 923.560456 421.313408 906.886707 454.073002 902.775666 462.174929 891.032592 473.799993 882.812655 477.793088 858.272999 489.651963 832.321513 485.543067 813.298291 466.635709 803.78668 457.12633 798.622131 447.144738 796.858417 434.343865 792.749521 406.162998 811.066828 378.570164 838.661872 371.053996 847.821598 368.586513 863.555558 368.822533 872.48141 371.6419Z"  /><path fill="#717171" d="M498.365911 415.204778C472.886466 418.845925 446.816971 431.292768 421.805274 451.723529 403.018072 467.107749 298.392497 563.747262 285.123875 578.073748 276.198023 587.701095 262.695526 607.194276 257.058936 618.349445 236.510166 658.979236 233.220904 704.421693 247.783346 748.572561 263.9872 797.892099 306.612434 842.864661 364.503879 871.633368 411.94401 895.235381 453.041465 905.216886 509.053332 906.74458 537.00026 907.448349 555.083779 906.39055 579.977379 902.281654 633.051868 893.591822 681.783587 872.809178 719.712021 842.512776 732.276917 832.413261 752.119729 811.980355 761.63134 799.299637 815.293734 727.553811 808.719501 633.84953 745.545496 570.087621 735.915875 560.460145 709.848525 535.682324 689.76759 517.247006 611.799329 445.735054 606.280749 441.27436 582.206761 429.179315 556.961126 416.380588 525.842945 411.213893 498.365911 415.204778ZM534.416912 463.702623C553.674009 467.341688 573.167126 477.793088 592.542232 494.466773 622.248497 520.300248 679.082229 572.906988 706.325302 600.032138 726.404264 619.877139 735.44598 633.615656 742.844138 655.22008 755.057107 690.91705 749.066487 731.428832 726.640284 764.660465 700.688799 803.058794 653.130744 834.410849 599.46835 848.50125 548.625324 861.769873 489.560215 861.887883 439.654833 848.853135 406.305275 840.163303 371.666017 823.25568 345.832542 802.940784 325.401782 786.73693 305.908665 762.665023 297.570718 742.935821 290.29057 725.676421 288.295127 714.988915 288.295127 694.558197 288.295127 672.833618 290.642454 661.444574 298.628517 644.534805 309.195782 622.224466 316.945824 613.770654 384.464745 550.59665 445.761317 493.411119 459.615698 481.786055 479.580855 472.038424 498.365911 462.644823 515.627565 460.061519 534.416912 463.702623Z"  /></svg>