<?xml version="1.0" standalone="no"?><!DOCTYPE svg PUBLIC "-//W3C//DTD SVG 1.1//EN" "http://www.w3.org/Graphics/SVG/1.1/DTD/svg11.dtd"><svg class="icon" width="200px" height="200.00px" viewBox="0 0 1024 1024" version="1.1" xmlns="http://www.w3.org/2000/svg"><path fill="#006b5d" d="M502.622355 62.019652C438.710114 66.27189 377.052589 98.790124 335.654406 150.068003 314.393213 176.332356 298.135158 211.2256 290.757031 246.245425 286.380357 267.006733 285.254007 302.526442 288.255461 323.036736 297.259824 383.694427 326.15016 434.347986 375.050904 474.619776 379.427578 478.245592 382.806627 481.371567 382.555612 481.498061 382.304597 481.746931 373.802265 485.250415 363.671553 489.500594 323.27314 506.260593 293.007585 523.520563 262.115564 547.534405 247.232729 559.162562 243.22936 562.666046 227.84664 577.675461 195.454965 609.316236 171.314607 642.085506 150.804314 682.355193 129.29423 724.755291 117.912754 761.774654 110.659062 813.552418 108.908435 825.309364 108.406319 837.439615 108.406319 862.328728 108.406319 892.594283 108.657377 896.346637 111.158947 905.477579 117.41287 928.489442 130.418434 946.749181 146.178792 954.753774 162.56126 963.007236 133.795316 962.382916 511.626717 962.507351 889.580364 962.633931 863.065017 963.133816 879.074202 955.004789 887.956275 950.501535 899.084611 938.995604 904.089895 929.115907 912.592227 912.355822 915.593681 895.471302 915.593681 865.454616 915.593681 798.918452 901.837195 739.887081 872.695844 681.606439 856.062339 648.212849 837.42715 621.197618 810.036469 590.432177 798.657117 577.675461 791.778875 572.92115 782.272482 570.921653 763.263989 566.918284 744.25114 582.55202 744.25114 602.186914 744.25114 611.819951 747.254804 617.320829 760.009374 631.579345 798.030652 674.101774 822.919765 718.374873 837.42715 768.903912 847.057977 802.797386 849.934997 823.68313 849.934997 861.953278L849.934997 890.970194 846.431512 894.471533 843.054608 897.972871 513.752879 898.223886C253.984392 898.472756 183.948991 898.223886 181.5719 896.973102 179.945665 896.222202 177.319661 893.845068 175.944441 891.969963 173.442872 888.593059 173.318437 886.966825 173.442872 859.451708 173.442872 836.188831 174.067192 827.060034 176.193311 813.176968 187.450373 742.013115 217.091609 681.981803 266.743253 630.32856 308.390305 586.928758 357.166615 557.662993 418.575206 539.027718 444.464088 531.149792 491.740743 523.769433 507.374478 525.146798 518.005075 526.146567 546.142366 524.144883 560.651896 521.392298 650.824243 504.63659 721.73914 437.59831 744.877669 347.174948 748.503443 333.043013 751.755955 306.903116 751.755955 291.769265 751.755955 229.360905 726.740134 171.080348 680.967573 126.929582 660.830606 107.545638 643.446073 95.537698 618.557003 83.782875 581.788591 66.27189 544.142827 59.269213 502.620209 62.019652ZM551.645389 129.431194C585.165559 135.809509 612.929545 150.692323 638.069737 175.708037 652.952508 190.464292 661.33255 202.096803 670.585782 221.105297 681.967279 244.24374 686.719402 265.504933 686.719402 292.6446 686.719402 352.302521 656.704862 405.455505 605.802433 436.22309 591.919367 444.60309 577.911866 450.354983 560.776331 454.858365 546.64431 458.610698 545.018204 458.859567 519.755744 458.859567 490.989843 458.986083 482.109916 457.608718 459.722373 449.355213 414.322967 432.721752 376.928154 394.449394 360.419084 347.925848 347.786803 311.904109 347.662368 274.635876 360.419084 238.865152 377.428039 190.590872 413.323198 154.444655 461.848492 136.435974 489.987928 125.929812 520.880056 123.552678 551.647534 129.431194Z"  /><path fill="#006b5d" d="M665.960174 738.511819C641.195561 743.763784 624.810926 769.528231 630.940415 793.415429 634.692768 808.049394 642.946231 818.055672 656.704862 824.682899 662.583399 827.435484 665.209339 827.935368 675.4644 827.935368 685.719632 827.935368 688.345551 827.435484 694.472937 824.558464 721.239341 812.050618 729.994877 779.658943 712.983734 756.147196 708.358191 749.768773 699.102813 743.01503 691.72254 740.38688 684.719863 737.885311 672.714047 737.009976 665.960174 738.511819Z"  /></svg>