<?xml version="1.0" standalone="no"?><!DOCTYPE svg PUBLIC "-//W3C//DTD SVG 1.1//EN" "http://www.w3.org/Graphics/SVG/1.1/DTD/svg11.dtd"><svg class="icon" width="200px" height="200.00px" viewBox="0 0 1024 1024" version="1.1" xmlns="http://www.w3.org/2000/svg"><path fill="#717171" d="M407.809395 62.056726C308.919565 67.324127 222.240237 85.28264 169.68423 111.619647 132.209512 130.417083 109.82252 154.241615 108.146821 177.227203 107.310044 189.081602 109.464208 195.786478 116.167003 202.489295 119.520567 205.722686 123.710866 208.475466 126.583799 209.432395 130.413639 210.511623 205.360951 210.869935 463.24048 210.869935L794.86792 210.869935 801.212403 207.518537C820.007693 197.700358 821.80569 174.712603 805.402723 151.847146 784.212965 122.276748 734.647898 97.375135 664.013225 80.852016 603.314738 66.72551 545.008573 61.097651 463.000175 61.455963 436.54087 61.578261 411.759409 61.816421 407.809395 62.056726ZM538.904395 101.921664C634.440682 109.107172 712.499065 129.099696 753.923798 156.876388 759.789816 160.70625 766.494757 165.855645 768.64892 168.247967L772.83924 172.560585 461.802941 172.560585C167.888379 172.560585 150.766642 172.438287 152.324334 170.522326 157.113271 164.536112 172.196706 153.64304 183.928785 147.776979 230.380572 124.310759 310.236952 107.071016 395.837053 101.923767 407.689285 101.204997 420.380354 100.486228 423.972014 100.248068 436.302754 99.411291 522.621581 100.60638 538.904395 101.921664Z"  /><path fill="#717171" d="M165.373715 237.32924C143.224925 240.202173 122.992096 259.716232 118.681624 282.583835 117.844847 286.892161 117.484389 381.711824 117.484389 563.328821 117.484389 800.018591 117.724694 838.808551 119.280241 845.991956 124.069178 868.619254 139.991534 886.936079 161.782034 894.718101L169.564078 897.470882 413.913573 897.831339 658.385366 898.069499 658.743678 911.599533C659.224288 924.408651 659.462447 925.605886 663.77292 934.22683 669.518786 945.958867 676.822344 953.380432 687.116841 958.289521L695.141314 962.121529 783.614348 962.479841C859.756727 962.720146 872.926304 962.479841 879.150634 960.924295 897.587612 956.255511 911.117646 941.16993 914.709349 921.415566 915.546125 916.746782 916.02459 877.478358 916.02459 802.891524 916.02459 681.374398 916.144742 684.367483 909.201642 671.438212 905.011322 664.014501 894.594526 654.31654 886.093734 650.368606 879.511092 647.253222 879.270787 647.253222 842.396831 646.656751L805.282571 646.055988 804.683954 462.164675 804.085336 278.273362 799.05824 268.096872C790.319289 250.49667 775.353861 239.603556 756.436273 237.209087 745.663311 235.771548 176.266851 235.8917 165.371612 237.32924ZM289.881825 278.033057C289.881825 283.540764 284.734576 305.211132 281.383178 313.950084 274.918543 330.59121 261.748966 346.393414 249.418312 352.141426 230.500724 361.00053 207.873427 346.275407 193.508762 315.866088 188.837832 305.927756 182.135058 283.420611 182.135058 277.794898 182.135058 275.638589 184.409353 275.520582 236.010576 275.520582 289.88397 275.520582 289.88397 275.520582 289.88397 278.033057ZM437.139487 276.955976C437.139487 277.792752 436.302754 283.300459 435.345782 289.04847 430.196387 318.498716 415.351198 342.563552 397.034287 351.542809 383.744558 358.127597 372.370833 355.254664 358.242182 341.844783 349.505376 333.584296 344.117822 325.443961 338.85042 312.632697 335.61703 304.492363 330.589934 283.660916 330.589934 278.033057 330.589934 275.518436 330.589934 275.518436 383.86471 275.518436 425.647755 275.518436 437.139487 275.878894 437.139487 276.955976ZM583.67838 279.949061C578.651327 307.963913 569.912332 327.83843 556.742799 341.604478 533.396775 365.549162 506.338766 355.612976 487.423281 316.104247 482.634387 306.047909 478.562075 292.399868 477.126681 281.386601L476.289904 275.518436 584.517302 275.518436 583.680526 279.949061ZM731.176348 281.386601C730.099309 289.76724 726.147106 304.850675 723.036078 312.632697 713.217834 337.175998 694.062087 355.254664 678.498107 354.894206 654.195132 354.415742 630.490667 321.970266 624.622503 281.146295L623.785726 275.518436 732.013124 275.518436 731.176348 281.386601ZM766.492611 476.053021L766.612764 646.055988 730.936043 646.656751C697.057318 647.253222 694.780857 647.373375 689.393303 649.887996 675.146688 656.472784 665.328466 667.36813 660.900073 681.256455 658.743678 688.43765 658.625671 692.868275 658.625671 773.679439L658.625671 858.562915 416.788694 858.562915C178.423182 858.562915 174.831479 858.562915 170.282847 856.168447 164.176481 853.055209 158.668839 846.350268 157.113271 839.883487 156.154196 836.29393 155.795884 760.15155 155.795884 581.765884L155.795884 328.795359 161.782034 339.450314C174.232862 361.7193 188.359367 376.32427 205.959569 385.543831 227.865951 396.915411 247.740468 396.915411 270.009453 385.423679 281.74149 379.317355 298.863227 362.796381 305.448015 351.302504 307.722331 347.112184 309.996647 343.760786 310.354959 343.760786 310.715417 343.760786 313.468197 347.352489 316.34113 351.780968 322.928064 362.079757 338.730268 377.881962 347.709525 383.149363 369.615907 395.958482 392.603662 397.275868 413.79342 386.620913 430.07838 378.598586 442.647194 366.626243 452.943837 349.626805L457.374419 342.4434 459.048015 345.794797C462.161253 351.780968 475.332975 368.065928 481.078841 373.211032 489.21909 380.156277 499.395731 386.500761 508.73538 390.212616 515.678481 392.965396 518.551499 393.323708 529.925074 393.323708 540.580094 393.323708 544.530109 392.845244 550.876737 390.570928 568.234488 384.46675 585.714429 370.217946 597.566726 352.499738 601.038233 347.350344 604.031362 343.282322 604.389674 343.402474 604.629979 343.520481 607.1446 346.992032 609.779373 351.182351 617.203084 362.676229 634.801139 379.437508 645.215789 384.945214 667.963175 396.797404 688.196069 397.035563 709.984444 385.663984 728.183305 376.204117 741.831303 361.478995 752.606411 339.808626 756.198114 332.627367 760.508586 321.970266 762.422444 316.2244 764.218295 310.358381 765.89614 305.689597 766.014147 305.809749 766.134299 306.047909 766.374604 382.550746 766.494757 476.053021ZM873.164463 688.43765L877.116623 691.9092 877.354783 803.13183C877.595088 890.407629 877.354783 914.830778 876.157549 917.225246 875.320772 918.900945 872.806151 921.175261 870.531835 922.374641 866.581821 924.288499 860.713656 924.408651 785.290047 924.168346L704.118425 923.810034 700.88718 920.458637 697.533594 917.225246 697.175325 806.124915C696.93502 724.354677 697.295478 694.303669 698.252407 691.791193 701.127485 684.845883 698.6128 685.086253 787.564363 684.966165L869.332455 684.966165 873.164463 688.43765Z"  /></svg>