<?xml version="1.0" standalone="no"?><!DOCTYPE svg PUBLIC "-//W3C//DTD SVG 1.1//EN" "http://www.w3.org/Graphics/SVG/1.1/DTD/svg11.dtd"><svg class="icon" width="200px" height="200.00px" viewBox="0 0 1024 1024" version="1.1" xmlns="http://www.w3.org/2000/svg"><path fill="#006b5d" d="M488.362957 142.077345C485.303708 142.321899 475.756609 143.177869 466.947612 143.911637 383.856414 150.88632 302.966393 184.661294 243.36943 237.038998 176.310822 296.144666 133.111058 370.913871 96.768067 491.330673 78.412013 552.028289 66.297003 609.297497 62.379467 653.964518 60.545196 675.135353 61.523497 714.784422 64.215926 728.733831 74.494563 780.866918 102.639973 821.86115 147.307167 849.762028 169.578525 863.711395 191.485167 872.033387 220.119771 877.296044 244.961314 881.945117 263.806475 882.31198 512.224054 882.189693 766.393441 882.189693 784.996173 881.824975 810.816017 876.684606 891.581605 860.407484 946.040344 805.217165 960.968011 724.451577 962.068599 718.822057 962.559895 704.992833 962.559895 683.4552 962.559895 656.290192 962.068599 647.9682 959.745135 632.060087 947.140932 545.664979 913.855109 435.159908 880.080135 367.854536 856.33918 320.619346 834.923835 290.637434 800.537423 256.37331 777.041043 232.999217 763.456394 221.742323 739.228434 205.832064 688.931764 172.792962 625.052547 150.641745 560.561978 143.78935 548.324638 142.444165 497.66325 141.219165 488.362957 142.077345ZM566.802936 191.393547C618.077906 198.859526 656.870962 211.706159 698.232057 235.324827 747.915143 263.592568 792.337719 308.748869 824.153945 363.205462 862.577992 428.796663 904.310241 560.959509 914.833409 650.416097 916.914444 668.405245 917.279161 700.710708 915.32256 713.192538 910.673486 744.397326 897.088837 771.933488 876.407217 792.368387 859.765378 809.012371 844.224127 818.312664 820.240742 826.14336 796.986792 833.731627 795.274766 833.853915 692.724824 835.321366 587.851418 836.790962 271.883892 835.932804 247.164636 833.976202 211.430916 831.28373 183.652325 820.880703 157.954768 800.323516 142.289085 787.841601 128.706581 770.463891 120.38461 752.107881 108.758665 726.777187 105.454776 692.144055 110.350527 646.743179 119.284 562.795968 159.666752 433.447796 197.479404 367.734394 254.506182 268.366075 340.534427 208.646824 449.569902 192.738711 476.49248 188.823363 490.933142 187.96735 522.015643 188.576642 540.860804 188.823363 555.668329 189.801663 566.802936 191.393547Z"  /><path fill="#006b5d" d="M306.148016 390.494903C293.788388 394.899401 283.509794 404.688845 279.10315 416.192459 275.187802 426.717838 275.921528 441.523153 280.939609 450.701158 285.588683 459.267726 292.932375 466.489044 301.129934 470.404478 307.004029 473.219238 309.454071 473.586058 320.099528 473.586058 331.723285 473.586058 332.703731 473.341525 340.045277 469.424032 354.975089 461.226516 362.807931 448.499982 362.930219 431.978285 362.930219 416.803897 356.933836 404.933377 344.941071 396.735861 333.437456 388.780731 318.016348 386.332834 306.148016 390.492758Z"  /><path fill="#006b5d" d="M685.994716 390.12804C678.408595 392.696015 674.001951 395.2662 668.494805 400.651209 647.079459 421.455117 653.198043 457.311081 680.487484 470.404478 686.361579 473.09695 688.811622 473.586058 698.843494 473.586058 708.879658 473.586058 711.447633 473.09695 717.44408 470.282255 725.521561 466.489044 733.232094 458.900863 737.761026 450.33436 740.695885 444.949351 741.064807 442.868317 741.064807 431.978285 741.064807 420.843679 740.695885 419.129464 737.514262 412.64391 730.295004 398.447823 716.343578 389.636744 700.068516 388.903019 694.683571 388.658444 688.933995 389.269882 685.994716 390.125895Z"  /><path fill="#006b5d" d="M456.300053 516.416856C443.084369 520.087565 429.255144 531.468892 422.891899 543.950807 417.629242 554.351689 415.794928 562.918256 416.406366 575.033309 416.895431 584.580322 417.506869 587.392936 421.302161 595.348066 428.643707 610.767029 434.762377 616.394489 465.111152 635.85319 488.729734 650.905248 501.945461 657.757643 507.575024 657.757643 511.73705 657.757643 519.690033 654.331446 532.416524 646.987797 546.368079 638.912568 574.635777 619.209163 580.387585 613.337214 611.714661 582.008056 598.130012 527.429111 556.279767 516.294504 547.835487 513.968895 464.622002 514.091182 456.300053 516.416856ZM547.835487 563.896514C551.261685 567.81405 551.628634 573.074476 548.936075 578.337219 547.713264 580.662785 540.738516 586.167915 528.623464 594.245332 518.587386 600.977586 509.656015 606.727312 508.800002 607.096256 507.083685 607.707694 472.575029 586.047773 467.436762 581.151979 465.478015 579.31552 463.64147 576.011609 463.152406 573.810433 462.296392 569.159214 465.23344 562.673681 469.148788 561.081797 470.618385 560.470359 488.24067 560.103496 508.308642 560.225784L544.89844 560.470359 547.835487 563.896514Z"  /></svg>